<svg width="88" height="17" viewBox="0 0 88 17" fill="none" xmlns="http://www.w3.org/2000/svg">
<path d="M10.7227 16L9.32617 12.0352H3.86719L2.4707 16H0L5.3125 1.66406H7.91016L13.2129 16H10.7227ZM8.7207 10.0234L7.36328 6.11719C7.3112 5.94792 7.23633 5.71029 7.13867 5.4043C7.04102 5.0918 6.94336 4.77604 6.8457 4.45703C6.74805 4.13151 6.66667 3.85807 6.60156 3.63672C6.53646 3.90365 6.45508 4.20312 6.35742 4.53516C6.26628 4.86068 6.17513 5.16667 6.08398 5.45312C5.99935 5.73958 5.93424 5.96094 5.88867 6.11719L4.52148 10.0234H8.7207ZM17.1582 0.804688V4.4668C17.1582 4.88997 17.1452 5.30664 17.1191 5.7168C17.0996 6.12044 17.0801 6.4362 17.0605 6.66406H17.1582C17.4512 6.19531 17.8581 5.80143 18.3789 5.48242C18.9062 5.1569 19.5801 4.99414 20.4004 4.99414C21.6829 4.99414 22.7148 5.46615 23.4961 6.41016C24.2773 7.34766 24.668 8.73763 24.668 10.5801C24.668 11.804 24.4889 12.8327 24.1309 13.666C23.7728 14.4993 23.2682 15.1309 22.6172 15.5605C21.9727 15.9837 21.2142 16.1953 20.3418 16.1953C19.5215 16.1953 18.8574 16.0456 18.3496 15.7461C17.8483 15.4401 17.4544 15.0853 17.168 14.6816H17.002L16.582 16H14.8633V0.804688H17.1582ZM19.7949 6.85938C19.1439 6.85938 18.6263 6.98958 18.2422 7.25C17.8646 7.51042 17.5911 7.90104 17.4219 8.42188C17.2526 8.9362 17.1647 9.59049 17.1582 10.3848V10.5898C17.1582 11.7943 17.347 12.7155 17.7246 13.3535C18.1087 13.9915 18.8053 14.3105 19.8145 14.3105C20.6152 14.3105 21.2305 13.9883 21.6602 13.3438C22.0898 12.6927 22.3047 11.7617 22.3047 10.5508C22.3047 9.32682 22.0898 8.4056 21.6602 7.78711C21.237 7.16862 20.6152 6.85938 19.7949 6.85938ZM36.8945 10.5703C36.8945 11.4688 36.7773 12.2663 36.543 12.9629C36.3086 13.6595 35.9668 14.2487 35.5176 14.7305C35.0684 15.2057 34.528 15.5703 33.8965 15.8242C33.265 16.0716 32.5521 16.1953 31.7578 16.1953C31.0156 16.1953 30.3353 16.0716 29.7168 15.8242C29.0983 15.5703 28.5612 15.2057 28.1055 14.7305C27.6562 14.2487 27.3079 13.6595 27.0605 12.9629C26.8132 12.2663 26.6895 11.4688 26.6895 10.5703C26.6895 9.37891 26.8945 8.36979 27.3047 7.54297C27.7214 6.70964 28.3138 6.07487 29.082 5.63867C29.8503 5.20247 30.765 4.98438 31.8262 4.98438C32.8223 4.98438 33.7012 5.20247 34.4629 5.63867C35.2246 6.07487 35.8203 6.70964 36.25 7.54297C36.6797 8.3763 36.8945 9.38542 36.8945 10.5703ZM29.0527 10.5703C29.0527 11.3581 29.1471 12.0319 29.3359 12.5918C29.5312 13.1517 29.8307 13.5814 30.2344 13.8809C30.638 14.1738 31.1589 14.3203 31.7969 14.3203C32.4349 14.3203 32.9557 14.1738 33.3594 13.8809C33.763 13.5814 34.0592 13.1517 34.248 12.5918C34.4368 12.0319 34.5312 11.3581 34.5312 10.5703C34.5312 9.78255 34.4368 9.11523 34.248 8.56836C34.0592 8.01497 33.763 7.59505 33.3594 7.30859C32.9557 7.01562 32.4316 6.86914 31.7871 6.86914C30.8366 6.86914 30.1432 7.18815 29.707 7.82617C29.2708 8.46419 29.0527 9.37891 29.0527 10.5703ZM48.9551 5.18945V16H47.1484L46.8359 14.5449H46.709C46.4811 14.916 46.1914 15.2253 45.8398 15.4727C45.4883 15.7135 45.0977 15.8926 44.668 16.0098C44.2383 16.1335 43.7858 16.1953 43.3105 16.1953C42.4967 16.1953 41.8001 16.0586 41.2207 15.7852C40.6478 15.5052 40.2083 15.0755 39.9023 14.4961C39.5964 13.9167 39.4434 13.168 39.4434 12.25V5.18945H41.748V11.8203C41.748 12.6602 41.9173 13.2884 42.2559 13.7051C42.6009 14.1217 43.1348 14.3301 43.8574 14.3301C44.554 14.3301 45.1074 14.1868 45.5176 13.9004C45.9277 13.6139 46.2174 13.1908 46.3867 12.6309C46.5625 12.071 46.6504 11.3841 46.6504 10.5703V5.18945H48.9551ZM56.2695 14.3398C56.569 14.3398 56.8652 14.3138 57.1582 14.2617C57.4512 14.2031 57.7181 14.1348 57.959 14.0566V15.7949C57.7051 15.9056 57.3763 16 56.9727 16.0781C56.569 16.1562 56.1491 16.1953 55.7129 16.1953C55.1009 16.1953 54.5508 16.0944 54.0625 15.8926C53.5742 15.6842 53.1868 15.3294 52.9004 14.8281C52.6139 14.3268 52.4707 13.6335 52.4707 12.748V6.9375H50.9961V5.91211L52.5781 5.10156L53.3301 2.78711H54.7754V5.18945H57.8711V6.9375H54.7754V12.7188C54.7754 13.2656 54.9121 13.6725 55.1855 13.9395C55.459 14.2064 55.8203 14.3398 56.2695 14.3398ZM76.7969 1.72266V10.9609C76.7969 11.957 76.5853 12.849 76.1621 13.6367C75.7454 14.4245 75.1139 15.0495 74.2676 15.5117C73.4212 15.9674 72.3568 16.1953 71.0742 16.1953C69.2448 16.1953 67.8516 15.7168 66.8945 14.7598C65.944 13.7962 65.4688 12.5169 65.4688 10.9219V1.72266H67.8125V10.7168C67.8125 11.9082 68.0924 12.7871 68.6523 13.3535C69.2122 13.9199 70.0488 14.2031 71.1621 14.2031C71.9303 14.2031 72.5553 14.0697 73.0371 13.8027C73.5254 13.5293 73.8835 13.1322 74.1113 12.6113C74.3457 12.084 74.4629 11.4492 74.4629 10.707V1.72266H76.7969ZM87.4805 12.9141C87.4805 13.6237 87.3079 14.2227 86.9629 14.7109C86.6178 15.1992 86.1133 15.5703 85.4492 15.8242C84.7917 16.0716 83.9844 16.1953 83.0273 16.1953C82.2721 16.1953 81.6211 16.14 81.0742 16.0293C80.5339 15.9251 80.0228 15.7624 79.541 15.541V13.5586C80.0553 13.7995 80.6315 14.0078 81.2695 14.1836C81.9141 14.3594 82.5228 14.4473 83.0957 14.4473C83.8509 14.4473 84.3945 14.3301 84.7266 14.0957C85.0586 13.8548 85.2246 13.5358 85.2246 13.1387C85.2246 12.9043 85.1562 12.696 85.0195 12.5137C84.8893 12.3249 84.6419 12.1328 84.2773 11.9375C83.9193 11.7357 83.3919 11.4948 82.6953 11.2148C82.0117 10.9414 81.4355 10.668 80.9668 10.3945C80.498 10.1211 80.1432 9.79232 79.9023 9.4082C79.6615 9.01758 79.541 8.51953 79.541 7.91406C79.541 6.95703 79.9186 6.23112 80.6738 5.73633C81.4355 5.23503 82.4414 4.98438 83.6914 4.98438C84.3555 4.98438 84.9805 5.05273 85.5664 5.18945C86.1589 5.31966 86.7383 5.51172 87.3047 5.76562L86.582 7.49414C86.0938 7.2793 85.6022 7.10352 85.1074 6.9668C84.6191 6.82357 84.1211 6.75195 83.6133 6.75195C83.0208 6.75195 82.5684 6.8431 82.2559 7.02539C81.9499 7.20768 81.7969 7.4681 81.7969 7.80664C81.7969 8.06055 81.8717 8.27539 82.0215 8.45117C82.1712 8.62695 82.4284 8.80273 82.793 8.97852C83.1641 9.1543 83.6784 9.3724 84.3359 9.63281C84.9805 9.88021 85.5371 10.1406 86.0059 10.4141C86.4811 10.681 86.8457 11.0098 87.0996 11.4004C87.3535 11.791 87.4805 12.2956 87.4805 12.9141Z" fill="white"/>
</svg>
