<svg width="39" height="25" viewBox="0 0 39 25" fill="none" xmlns="http://www.w3.org/2000/svg">
<path d="M35.625 0.125H32.9375V2.8125H35.625V21.625H3.375V2.8125H6.0625V0.125H3.375C2.66223 0.125 1.97865 0.408147 1.47465 0.912151C0.970646 1.41616 0.6875 2.09973 0.6875 2.8125V21.625C0.6875 22.3378 0.970646 23.0213 1.47465 23.5253C1.97865 24.0294 2.66223 24.3125 3.375 24.3125H35.625C36.3378 24.3125 37.0213 24.0294 37.5253 23.5253C38.0294 23.0213 38.3125 22.3378 38.3125 21.625V2.8125C38.3125 2.09973 38.0294 1.41616 37.5253 0.912151C37.0213 0.408147 36.3378 0.125 35.625 0.125Z" fill="#005F15"/>
</svg>
