<svg width="31" height="31" viewBox="0 0 31 31" fill="none" xmlns="http://www.w3.org/2000/svg">
<path d="M1.09169 17.7254C2.17377 24.6977 8.24044 30.0775 15.5015 30.0775C23.5209 30.0775 30.0819 23.5164 30.0819 15.497C30.0819 7.47767 23.5223 0.916626 15.5029 0.916626C10.6934 0.916626 6.46127 3.25142 3.83335 6.74996V0.918084L0.921062 0.916626L0.916687 11.125H11.125V8.20829L6.45981 8.20683C8.50002 5.58475 11.8571 3.83329 15.5029 3.83329C21.9167 3.83329 27.1667 9.08329 27.1667 15.497C27.1667 21.9108 21.9167 27.1622 15.5015 27.1622C9.84606 27.1622 5.10065 23.0877 4.05502 17.7254H1.09169Z" fill="#005F15"/>
</svg>
