<svg width="56" height="16" viewBox="0 0 56 16" fill="none" xmlns="http://www.w3.org/2000/svg">
<path d="M12.1348 15H9.80078V8.55469H3.21875V15H0.875V0.722656H3.21875V6.5625H9.80078V0.722656H12.1348V15ZM25.25 9.57031C25.25 10.4688 25.1328 11.2663 24.8984 11.9629C24.6641 12.6595 24.3223 13.2487 23.873 13.7305C23.4238 14.2057 22.8835 14.5703 22.252 14.8242C21.6204 15.0716 20.9076 15.1953 20.1133 15.1953C19.3711 15.1953 18.6908 15.0716 18.0723 14.8242C17.4538 14.5703 16.9167 14.2057 16.4609 13.7305C16.0117 13.2487 15.6634 12.6595 15.416 11.9629C15.1686 11.2663 15.0449 10.4688 15.0449 9.57031C15.0449 8.37891 15.25 7.36979 15.6602 6.54297C16.0768 5.70964 16.6693 5.07487 17.4375 4.63867C18.2057 4.20247 19.1204 3.98438 20.1816 3.98438C21.1777 3.98438 22.0566 4.20247 22.8184 4.63867C23.5801 5.07487 24.1758 5.70964 24.6055 6.54297C25.0352 7.3763 25.25 8.38542 25.25 9.57031ZM17.4082 9.57031C17.4082 10.3581 17.5026 11.0319 17.6914 11.5918C17.8867 12.1517 18.1862 12.5814 18.5898 12.8809C18.9935 13.1738 19.5143 13.3203 20.1523 13.3203C20.7904 13.3203 21.3112 13.1738 21.7148 12.8809C22.1185 12.5814 22.4147 12.1517 22.6035 11.5918C22.7923 11.0319 22.8867 10.3581 22.8867 9.57031C22.8867 8.78255 22.7923 8.11523 22.6035 7.56836C22.4147 7.01497 22.1185 6.59505 21.7148 6.30859C21.3112 6.01562 20.7871 5.86914 20.1426 5.86914C19.1921 5.86914 18.4987 6.18815 18.0625 6.82617C17.6263 7.46419 17.4082 8.37891 17.4082 9.57031ZM40.1035 3.98438C41.3145 3.98438 42.2259 4.29688 42.8379 4.92188C43.4564 5.54688 43.7656 6.54948 43.7656 7.92969V15H41.4707V8.33984C41.4707 7.51953 41.3112 6.90104 40.9922 6.48438C40.6732 6.06771 40.1882 5.85938 39.5371 5.85938C38.6257 5.85938 37.9681 6.15234 37.5645 6.73828C37.1673 7.31771 36.9688 8.16081 36.9688 9.26758V15H34.6738V8.33984C34.6738 7.79297 34.6022 7.33724 34.459 6.97266C34.3223 6.60156 34.1107 6.32487 33.8242 6.14258C33.5378 5.95378 33.1764 5.85938 32.7402 5.85938C32.1087 5.85938 31.6042 6.0026 31.2266 6.28906C30.8555 6.57552 30.5885 6.9987 30.4258 7.55859C30.263 8.11198 30.1816 8.79232 30.1816 9.59961V15H27.8867V4.18945H29.6738L29.9961 5.64453H30.123C30.3444 5.26693 30.6178 4.95768 30.9434 4.7168C31.2754 4.4694 31.6432 4.28711 32.0469 4.16992C32.4505 4.04622 32.8704 3.98438 33.3066 3.98438C34.1139 3.98438 34.7943 4.1276 35.3477 4.41406C35.901 4.69401 36.3145 5.1237 36.5879 5.70312H36.7637C37.1022 5.11719 37.5742 4.68424 38.1797 4.4043C38.7852 4.12435 39.4264 3.98438 40.1035 3.98438ZM51.2754 3.98438C52.2389 3.98438 53.0658 4.18294 53.7559 4.58008C54.446 4.97721 54.9766 5.54036 55.3477 6.26953C55.7188 6.9987 55.9043 7.87109 55.9043 8.88672V10.1172H48.6875C48.7135 11.1654 48.9935 11.9727 49.5273 12.5391C50.0677 13.1055 50.8229 13.3887 51.793 13.3887C52.4831 13.3887 53.1016 13.3236 53.6484 13.1934C54.2018 13.0566 54.7715 12.8581 55.3574 12.5977V14.4629C54.8171 14.7168 54.2669 14.9023 53.707 15.0195C53.1471 15.1367 52.4766 15.1953 51.6953 15.1953C50.6341 15.1953 49.6999 14.9902 48.8926 14.5801C48.0918 14.1634 47.4635 13.5449 47.0078 12.7246C46.5586 11.9043 46.334 10.8854 46.334 9.66797C46.334 8.45703 46.5391 7.42839 46.9492 6.58203C47.3594 5.73568 47.9355 5.09115 48.6777 4.64844C49.4199 4.20573 50.2858 3.98438 51.2754 3.98438ZM51.2754 5.71289C50.5527 5.71289 49.9668 5.94727 49.5176 6.41602C49.0749 6.88477 48.8145 7.57161 48.7363 8.47656H53.6582C53.6517 7.9362 53.5605 7.45768 53.3848 7.04102C53.2155 6.62435 52.9551 6.29883 52.6035 6.06445C52.2585 5.83008 51.8158 5.71289 51.2754 5.71289Z" fill="white"/>
</svg>
