<svg width="23" height="31" viewBox="0 0 23 31" fill="none" xmlns="http://www.w3.org/2000/svg">
<path d="M11.5 30.25L3.31655 18.6937C1.97708 17.1122 1.11447 15.1827 0.829211 13.1299C0.543947 11.0771 0.847762 8.98554 1.70527 7.09874C2.56278 5.21193 3.93869 3.60758 5.67277 2.47252C7.40684 1.33747 9.4277 0.71843 11.5 0.6875C14.3726 0.715887 17.1168 1.88155 19.1317 3.92918C21.1466 5.97681 22.2679 8.73951 22.25 11.6122C22.2511 14.1182 21.3979 16.5497 19.8312 18.5056L11.5 30.25ZM11.5 3.375C9.33904 3.39981 7.27627 4.28119 5.76461 5.8256C4.25296 7.37001 3.41599 9.4512 3.43749 11.6122C3.44649 13.5846 4.1561 15.4896 5.43968 16.9872L11.5 25.5738L17.7216 16.8125C18.9042 15.3363 19.553 13.5036 19.5625 11.6122C19.584 9.4512 18.747 7.37001 17.2354 5.8256C15.7237 4.28119 13.6609 3.39981 11.5 3.375V3.375Z" fill="#005F15"/>
</svg>
